<svg width="48" height="48" viewBox="0 0 48 48" fill="none" xmlns="http://www.w3.org/2000/svg">
<path d="M39.9976 2C39.9976 2 40.3338 15.6151 32.3051 16.6379C28.8699 17.0789 24.0827 17.8016 19.7723 19.0385C17.5632 19.6734 16.8926 20.0412 16.8926 20.0412C16.8926 20.0412 16.8012 8.04728 27.209 6.93846C39.0529 5.68509 39.9976 2 39.9976 2Z" fill="#D446F7"/>
<path d="M37.7589 22.1411C37.8338 31.1398 36.6352 36.8431 23.4135 40.6508C18.1512 42.1658 11.5897 45.0897 11.5897 45.0897C11.5897 45.0897 14.0711 40.7331 14.5132 38.6472C14.9554 36.5613 14.9956 36.1551 14.9956 36.1551C14.9956 36.1551 5.79565 37.3664 10.1882 28.1043C13.4224 21.283 25.2499 19.349 32.4125 20.2474C37.2583 20.8585 37.748 20.7158 37.7589 22.1411Z" fill="white"/>
</svg>
