<svg width="81" height="113" viewBox="0 0 81 113" fill="none" xmlns="http://www.w3.org/2000/svg">
<path d="M80.7152 0.053894C80.7152 0.053894 81.583 35.2032 60.8585 37.8623C51.9913 39.0006 39.6339 40.8709 28.5076 44.0637C22.8053 45.6979 21.0743 46.652 21.0743 46.652C21.0743 46.652 20.8385 15.6921 47.704 12.8299C78.2767 9.57094 80.7152 0.053894 80.7152 0.053894Z" fill="#D446F7"/>
<path d="M74.9364 52.91C75.1298 76.1382 72.0357 90.8601 37.9067 100.684C24.323 104.595 7.38582 112.142 7.38582 112.142C7.38582 112.142 13.7909 100.901 14.9323 95.5171C16.0737 90.1328 16.1728 89.0937 16.1728 89.0937C16.1728 89.0937 -7.5751 92.2204 3.7635 68.3121C12.1118 50.7043 42.6421 45.7073 61.131 48.0311C73.644 49.5991 74.9081 49.226 74.9364 52.91Z" fill="#002ADD"/>
</svg>
