<svg width="192" height="192" viewBox="0 0 192 192" fill="none" xmlns="http://www.w3.org/2000/svg">
<path d="M157.992 2C157.992 2 159.445 60.853 124.74 65.2743C109.891 67.1805 89.1973 70.3046 70.5651 75.6513C61.016 78.3958 58.1173 79.9856 58.1173 79.9856C58.1173 79.9856 57.7224 28.1402 102.711 23.3472C153.908 17.9293 157.992 2 157.992 2Z" fill="#D446F7"/>
<path d="M148.314 89.0628C148.638 127.961 143.457 152.614 86.3045 169.073C63.5573 175.622 35.1944 188.261 35.1944 188.261C35.1944 188.261 45.9203 169.429 47.8317 160.413C49.7431 151.396 49.9169 149.64 49.9169 149.64C49.9169 149.64 10.1487 154.876 29.1363 114.839C43.1164 85.3533 94.2423 76.9932 125.204 80.8767C146.15 83.5184 148.267 82.9014 148.314 89.0628Z" fill="white"/>
</svg>
