<svg width="81" height="113" viewBox="0 0 81 113" fill="none" xmlns="http://www.w3.org/2000/svg">
<path d="M80.8661 0.0584717C80.8661 0.0584717 81.7339 35.2031 61.0093 37.8433C52.1422 38.9815 39.7848 40.8472 28.6585 44.04C22.9561 45.6789 21.2252 46.6282 21.2252 46.6282C21.2252 46.6282 20.9893 15.6683 47.8549 12.8061C78.4276 9.57079 80.8661 0.0584717 80.8661 0.0584717Z" fill="#D446F7"/>
<path d="M75.0879 52.91C75.2813 76.1382 72.1872 90.8601 38.0582 100.689C24.4745 104.6 7.53735 112.147 7.53735 112.147C7.53735 112.147 13.9424 100.901 15.0838 95.5171C16.2253 90.1328 16.329 89.0842 16.329 89.0842C16.329 89.0842 -7.41885 92.2109 3.91975 68.3026C12.2681 50.6949 42.7983 45.7026 61.2873 48.0216C73.7956 49.5991 75.0596 49.2307 75.0879 52.91Z" fill="white"/>
</svg>
